Coordinates
version=1
nRows=12
nColumns=24
inDegrees=yes

Units are S.I. units (second, meters, Newtons, ...)
Angles are in degrees.

endheader
time	pelvis_tilt	pelvis_list	pelvis_rotation	pelvis_tx	pelvis_ty	pelvis_tz	hip_flexion_r	hip_adduction_r	hip_rotation_r	knee_angle_r	ankle_angle_r	subtalar_angle_r	mtp_angle_r	hip_flexion_l	hip_adduction_l	hip_rotation_l	knee_angle_l	ankle_angle_l	subtalar_angle_l	mtp_angle_l	lumbar_extension	lumbar_bending	lumbar_rotation
      6.30000000	     68.69226266	     -1.31888313	      4.06543418	      0.65298029	      1.01406234	     -0.21659333	     -9.87301927	    -11.77153908	      2.47160295	    -48.08642574	    -18.45411398	     28.47877142	     90.63534741	    -10.45673908	    -13.62269726	      6.67066704	    -57.80749592	    -10.43546875	     31.64998869	     31.58393464	      0.00000000	      0.00000000	      0.00000000
      6.31000000	     68.68848585	     -1.32094237	      4.07010027	      0.65297150	      1.01406103	     -0.21659893	     -9.87616267	    -11.80095292	      2.47805238	    -48.13091959	    -18.47258837	     28.36373873	     90.67173931	    -10.44784902	    -13.62500105	      6.67753225	    -57.81358346	    -10.43513692	     31.64877601	     31.58454978	      0.00000000	      0.00000000	      0.00000000
      6.32000000	     68.68731660	     -1.32429586	      4.07485014	      0.65295967	      1.01406624	     -0.21659681	     -9.88528245	    -11.82968220	      2.48401959	    -48.18663082	    -18.51189433	     28.19722582	     90.71477660	    -10.44235377	    -13.62914808	      6.68474555	    -57.81851563	    -10.43532631	     31.64741949	     31.58482087	      0.00000000	      0.00000000	      0.00000000
      6.33000000	     68.68951962	     -1.32921839	      4.07832790	      0.65295511	      1.01407002	     -0.21659384	     -9.90039617	    -11.85688827	      2.49064348	    -48.25292988	    -18.57100390	     27.99383613	     90.76753019	    -10.44226452	    -13.63492640	      6.69099412	    -57.82172076	    -10.43620377	     31.64643965	     31.58488296	      0.00000000	      0.00000000	      0.00000000
      6.34000000	     68.69513103	     -1.33567623	      4.08011360	      0.65295689	      1.01406990	     -0.21659139	     -9.92023379	    -11.88250548	      2.49971125	    -48.32936250	    -18.64637929	     27.76914608	     90.83345303	    -10.44808201	    -13.64222416	      6.69567118	    -57.82255363	    -10.43788568	     31.64627988	     31.58485615	      0.00000000	      0.00000000	      0.00000000
      6.35000000	     68.70343845	     -1.34334791	      4.08082752	      0.65295328	      1.01406960	     -0.21658876	     -9.94239623	    -11.90723258	      2.51378219	    -48.41557775	    -18.73241535	     27.53884216	     90.91589325	    -10.45862540	    -13.65086087	      6.69889271	    -57.82051759	    -10.44039930	     31.64725995	     31.58484177	      0.00000000	      0.00000000	      0.00000000
      6.36000000	     68.71299321	     -1.35159179	      4.08166230	      0.65293895	      1.01407616	     -0.21658825	     -9.96384955	    -11.93251569	      2.53554859	    -48.51131899	    -18.82218455	     27.31811043	     91.01764118	    -10.47128757	    -13.66039784	      6.70115114	    -57.81556865	    -10.44363650	     31.64955608	     31.58492765	      0.00000000	      0.00000000	      0.00000000
      6.37000000	     68.72154379	     -1.35951736	      4.08346496	      0.65292029	      1.01409575	     -0.21659170	     -9.98172412	    -11.96032436	      2.56678363	    -48.61643725	    -18.90839995	     27.12111415	     91.14054169	    -10.48264367	    -13.67002020	      6.70285352	    -57.80832453	    -10.44732948	     31.65320556	     31.58519184	      0.00000000	      0.00000000	      0.00000000
      6.38000000	     68.72609595	     -1.36613889	      4.08591672	      0.65290615	      1.01412246	     -0.21659341	     -9.99413828	    -11.99265462	      2.60756686	    -48.73084042	    -18.98445963	     26.96041499	     91.28520486	    -10.48925488	    -13.67859084	      6.70406410	    -57.80001333	    -10.45108149	     31.65812913	     31.58569661	      0.00000000	      0.00000000	      0.00000000
      6.39000000	     68.72370966	     -1.37049908	      4.08760237	      0.65290226	      1.01413845	     -0.21658344	    -10.00041055	    -12.03090451	      2.65642373	    -48.85417944	    -19.04538428	     26.84624893	     91.45083731	    -10.48843934	    -13.68488185	      6.70459053	    -57.79211411	    -10.45445566	     31.66416236	     31.58647298	      0.00000000	      0.00000000	      0.00000000
      6.40000000	     68.71284156	     -1.37188468	      4.08711359	      0.65291108	      1.01413519	     -0.21656026	    -10.00064388	    -12.07552563	      2.71140323	    -48.98537954	    -19.08845727	     26.78565859	     91.63520331	    -10.47887269	    -13.68795151	      6.70430183	    -57.78583564	    -10.45709183	     31.67108617	     31.58750481	      0.00000000	      0.00000000	      0.00000000
      6.41000000	     68.69403249	     -1.37024224	      4.08427382	      0.65293286	      1.01412189	     -0.21653539	     -9.99557126	    -12.12623843	      2.77138212	    -49.12251042	    -19.11344422	     26.78158235	     91.83471209	    -10.46094816	    -13.68759829	      6.70346224	    -57.78169092	    -10.45880599	     31.67864815	     31.58872496	      0.00000000	      0.00000000	      0.00000000
